<svg xmlns="http://www.w3.org/2000/svg" version="1.1" viewBox="1.2930434942245483 0.8422362804412842 525.6329956054688 470.1595153808594" width="528.00" height="472.00">
<g stroke-width="2.00" fill="none" stroke-linecap="butt">
<path stroke="#2d7d7b" stroke-opacity="0.992" d="&#10;  M 148.63 253.04&#10;  L 148.55 281.93&#10;  A 1.06 1.06 0.0 0 0 149.63 283.00&#10;  Q 156.55 282.86 161.10 283.10&#10;  C 167.82 283.46 170.59 292.09 164.84 295.89&#10;  Q 162.96 297.13 158.87 297.06&#10;  Q 154.61 296.99 149.87 297.22&#10;  A 1.49 1.49 0.0 0 0 148.45 298.71&#10;  L 148.45 317.41&#10;  A 1.51 1.50 89.4 0 0 149.98 318.92&#10;  Q 158.24 318.80 161.22 318.97&#10;  C 170.39 319.49 171.17 332.56 160.74 333.13&#10;  Q 156.91 333.35 149.64 333.22&#10;  A 1.22 1.22 0.0 0 0 148.39 334.44&#10;  L 148.39 354.40&#10;  A 1.00 1.00 0.0 0 0 149.43 355.40&#10;  Q 156.07 355.16 161.24 355.52&#10;  C 168.60 356.03 171.22 364.50 165.39 369.07&#10;  Q 163.10 370.88 158.66 370.68&#10;  Q 156.35 370.57 149.09 370.64&#10;  A 0.71 0.70 -0.4 0 0 148.39 371.34&#10;  L 148.39 392.54&#10;  A 0.82 0.82 0.0 0 0 149.19 393.36&#10;  Q 155.00 393.53 160.75 393.57&#10;  C 164.86 393.59 168.56 397.00 168.53 401.28&#10;  C 168.44 410.79 155.51 409.07 149.51 408.87&#10;  A 1.01 1.01 0.0 0 0 148.47 409.88&#10;  L 148.47 451.09&#10;  A 1.52 1.52 0.0 0 0 149.99 452.61&#10;  L 185.85 452.61&#10;  A 1.00 1.00 0.0 0 0 186.85 451.61&#10;  L 186.89 271.69"/>
<path stroke="#855f41" stroke-opacity="0.992" d="&#10;  M 440.35 96.84&#10;  C 388.85 73.95 324.14 44.64 273.58 22.40&#10;  Q 267.46 19.71 264.28 19.41&#10;  Q 259.30 18.94 254.74 21.00&#10;  Q 174.10 57.46 85.85 97.02&#10;  A 0.40 0.40 0.0 0 0 85.85 97.75&#10;  Q 114.33 109.99 134.04 118.72&#10;  Q 135.91 119.55 137.87 118.83&#10;  Q 167.06 108.13 199.37 98.43&#10;  C 214.19 93.98 230.87 88.63 245.79 84.51&#10;  A 2.45 2.34 -71.8 0 0 246.71 84.02&#10;  C 248.35 82.64 250.09 80.50 252.06 79.39&#10;  C 260.56 74.62 271.23 75.41 277.26 82.96&#10;  C 285.34 93.08 275.09 103.05 264.78 103.55&#10;  Q 258.80 103.84 253.46 102.12&#10;  A 5.32 5.28 45.2 0 0 250.28 102.10&#10;  C 235.05 106.74 220.26 111.74 203.78 116.64&#10;  Q 185.22 122.16 166.12 128.63&#10;  Q 163.52 129.51 161.51 130.37&#10;  A 0.31 0.31 0.0 0 0 161.54 130.96&#10;  Q 162.70 131.31 166.89 133.10&#10;  Q 170.17 134.50 222.08 158.19&#10;  Q 239.35 166.08 251.83 170.91&#10;  C 258.51 173.49 264.58 174.82 271.37 172.60&#10;  C 273.80 171.80 278.26 170.15 281.25 168.78&#10;  C 334.60 144.20 397.08 116.56 440.35 97.45&#10;  A 0.33 0.33 0.0 0 0 440.35 96.84"/>
<path stroke="#855f41" stroke-opacity="0.992" d="&#10;  M 146.93 149.16&#10;  Q 146.31 171.81 146.43 194.19&#10;  C 146.47 202.36 146.24 208.07 153.05 211.94&#10;  Q 190.27 233.11 233.70 250.23&#10;  Q 236.29 251.25 242.32 253.27&#10;  Q 249.26 255.59 250.98 256.04&#10;  Q 261.39 258.76 272.00 256.28&#10;  Q 283.52 253.58 296.95 248.18"/>
<path stroke="#7f5344" stroke-opacity="0.992" d="&#10;  M 296.95 248.18&#10;  Q 322.34 237.68 345.39 225.33&#10;  C 348.81 223.50 351.53 221.47 353.98 218.85&#10;  A 3.90 3.88 -23.5 0 0 355.02 216.23&#10;  Q 355.10 202.92 355.03 175.75&#10;  Q 355.00 165.09 357.58 154.88&#10;  A 0.44 0.43 84.6 0 0 356.98 154.38&#10;  Q 308.58 176.00 281.87 188.10&#10;  Q 274.64 191.37 271.18 191.52&#10;  C 260.33 192.00 253.97 192.11 245.15 188.25&#10;  Q 198.30 167.78 151.45 146.70&#10;  Q 149.46 145.80 147.42 145.55&#10;  A 0.62 0.61 8.7 0 0 146.75 146.04&#10;  Q 146.39 147.87 146.93 149.16"/>
<path stroke="#f8772c" stroke-opacity="0.992" d="&#10;  M 296.95 248.18&#10;  Q 295.83 236.14 296.50 224.15&#10;  C 296.80 218.78 296.90 213.32 295.10 209.65&#10;  A 2.36 2.35 -10.3 0 0 293.19 208.33&#10;  C 289.77 208.02 286.41 209.18 282.86 209.48&#10;  Q 270.10 210.57 258.92 209.87&#10;  Q 254.88 209.62 251.25 208.69&#10;  C 243.52 206.71 238.16 204.00 224.80 198.19&#10;  Q 224.48 198.05 152.31 165.21&#10;  Q 150.75 164.50 148.15 162.79&#10;  Q 148.54 155.60 146.93 149.16"/>
<path stroke="#227785" stroke-opacity="0.992" d="&#10;  M 298.4345 322.7326&#10;  A 29.05 28.45 -80.1 0 0 265.4136 346.4586&#10;  A 29.05 28.45 -80.1 0 0 288.4455 379.9674&#10;  A 29.05 28.45 -80.1 0 0 321.4664 356.2414&#10;  A 29.05 28.45 -80.1 0 0 298.4345 322.7326"/>
<path stroke="#227785" stroke-opacity="0.992" d="&#10;  M 69.9218 197.1902&#10;  A 18.29 17.75 -84.0 0 0 50.3572 213.5246&#10;  A 18.29 17.75 -84.0 0 0 66.0982 233.5698&#10;  A 18.29 17.75 -84.0 0 0 85.6628 217.2354&#10;  A 18.29 17.75 -84.0 0 0 69.9218 197.1902"/>
</g>
<path fill="#0c3b59" fill-opacity="0.992" d="&#10;  M 356.15 242.62&#10;  A 1.14 1.14 0.0 0 0 355.06 241.65&#10;  C 352.83 241.56 350.54 242.33 348.65 243.33&#10;  C 333.44 251.41 318.03 259.52 301.68 265.91&#10;  Q 289.41 270.71 272.75 275.91&#10;  Q 262.14 279.22 251.74 275.71&#10;  Q 189.46 254.69 135.35 222.14&#10;  Q 131.32 219.71 129.40 215.39&#10;  Q 128.06 212.36 128.07 206.43&#10;  Q 128.09 169.43 128.12 138.16&#10;  A 1.77 1.67 32.1 0 0 127.89 137.27&#10;  Q 127.00 135.72 124.96 134.80&#10;  Q 112.01 128.96 72.42 111.38&#10;  Q 68.25 109.53 64.92 104.81&#10;  C 59.83 97.58 62.75 87.73 70.83 84.12&#10;  Q 113.92 64.86 122.87 60.82&#10;  Q 203.28 24.43 251.02 3.24&#10;  C 259.40 -0.47 268.73 0.32 277.51 4.27&#10;  Q 363.65 43.09 447.69 80.74&#10;  C 454.02 83.58 458.53 85.38 461.91 90.55&#10;  C 467.41 98.98 460.10 107.91 452.46 111.48&#10;  Q 412.77 130.03 389.39 140.45&#10;  Q 385.16 142.34 383.37 144.01&#10;  C 374.94 151.90 373.73 165.96 373.71 177.39&#10;  Q 373.62 221.40 373.76 227.48&#10;  Q 373.99 237.77 377.32 251.16&#10;  Q 379.82 261.21 384.15 268.59&#10;  C 397.04 290.60 417.18 303.41 443.00 302.58&#10;  Q 457.07 302.13 469.93 296.18&#10;  C 489.40 287.17 500.74 268.66 505.49 248.44&#10;  Q 506.46 244.35 507.29 237.71&#10;  Q 508.90 224.83 508.35 203.04&#10;  C 508.07 192.07 505.90 182.82 496.15 177.59&#10;  C 492.33 175.55 490.39 178.54 487.41 178.91&#10;  Q 484.02 179.33 479.13 179.07&#10;  C 472.16 178.70 468.23 178.30 463.85 173.19&#10;  Q 461.57 170.54 461.33 168.93&#10;  C 460.02 160.28 462.47 152.50 471.55 150.04&#10;  Q 474.20 149.32 484.11 149.92&#10;  Q 490.37 150.30 494.62 154.70&#10;  C 496.43 156.58 496.30 159.40 498.94 160.71&#10;  C 500.06 161.26 501.51 161.58 502.49 161.99&#10;  Q 519.18 168.83 524.60 186.66&#10;  C 525.69 190.24 526.78 195.77 526.83 200.20&#10;  Q 527.07 226.73 526.71 232.50&#10;  Q 525.67 249.39 520.19 265.66&#10;  C 511.57 291.22 491.69 313.19 464.94 320.65&#10;  Q 464.48 320.78 459.86 322.06&#10;  C 457.60 322.69 455.41 322.73 453.39 323.67&#10;  A 2.72 2.72 0.0 0 0 451.83 326.08&#10;  Q 451.69 335.72 451.83 364.52&#10;  C 451.86 372.07 450.60 379.35 449.66 387.42&#10;  Q 449.20 391.37 446.60 400.89&#10;  C 435.81 440.49 402.88 468.70 360.74 467.29&#10;  C 323.42 466.03 292.37 438.66 287.44 401.30&#10;  A 2.54 2.54 0.0 0 0 285.37 399.13&#10;  Q 276.79 397.56 268.76 392.74&#10;  Q 251.33 382.28 246.50 362.48&#10;  C 243.60 350.63 245.63 337.34 252.08 326.70&#10;  C 262.46 309.59 283.31 300.00 303.20 304.30&#10;  C 323.67 308.72 337.88 323.86 341.11 344.34&#10;  Q 342.69 354.32 339.85 364.50&#10;  Q 334.72 382.89 318.08 392.98&#10;  C 315.50 394.54 312.20 395.60 309.24 397.23&#10;  Q 305.85 399.10 306.63 403.03&#10;  Q 308.17 410.69 310.45 415.64&#10;  C 318.71 433.58 335.77 444.90 355.30 447.90&#10;  Q 359.09 448.48 366.92 448.24&#10;  Q 372.97 448.05 378.42 446.75&#10;  C 409.00 439.48 426.95 411.52 431.57 381.82&#10;  C 434.34 364.00 433.63 344.78 432.89 326.91&#10;  A 3.33 3.32 8.4 0 0 430.64 323.90&#10;  Q 428.41 323.14 425.45 322.51&#10;  C 384.51 313.92 362.01 282.39 356.15 242.62&#10;  Z&#10;  M 440.35 96.84&#10;  C 388.85 73.95 324.14 44.64 273.58 22.40&#10;  Q 267.46 19.71 264.28 19.41&#10;  Q 259.30 18.94 254.74 21.00&#10;  Q 174.10 57.46 85.85 97.02&#10;  A 0.40 0.40 0.0 0 0 85.85 97.75&#10;  Q 114.33 109.99 134.04 118.72&#10;  Q 135.91 119.55 137.87 118.83&#10;  Q 167.06 108.13 199.37 98.43&#10;  C 214.19 93.98 230.87 88.63 245.79 84.51&#10;  A 2.45 2.34 -71.8 0 0 246.71 84.02&#10;  C 248.35 82.64 250.09 80.50 252.06 79.39&#10;  C 260.56 74.62 271.23 75.41 277.26 82.96&#10;  C 285.34 93.08 275.09 103.05 264.78 103.55&#10;  Q 258.80 103.84 253.46 102.12&#10;  A 5.32 5.28 45.2 0 0 250.28 102.10&#10;  C 235.05 106.74 220.26 111.74 203.78 116.64&#10;  Q 185.22 122.16 166.12 128.63&#10;  Q 163.52 129.51 161.51 130.37&#10;  A 0.31 0.31 0.0 0 0 161.54 130.96&#10;  Q 162.70 131.31 166.89 133.10&#10;  Q 170.17 134.50 222.08 158.19&#10;  Q 239.35 166.08 251.83 170.91&#10;  C 258.51 173.49 264.58 174.82 271.37 172.60&#10;  C 273.80 171.80 278.26 170.15 281.25 168.78&#10;  C 334.60 144.20 397.08 116.56 440.35 97.45&#10;  A 0.33 0.33 0.0 0 0 440.35 96.84&#10;  Z&#10;  M 146.93 149.16&#10;  Q 146.31 171.81 146.43 194.19&#10;  C 146.47 202.36 146.24 208.07 153.05 211.94&#10;  Q 190.27 233.11 233.70 250.23&#10;  Q 236.29 251.25 242.32 253.27&#10;  Q 249.26 255.59 250.98 256.04&#10;  Q 261.39 258.76 272.00 256.28&#10;  Q 283.52 253.58 296.95 248.18&#10;  Q 322.34 237.68 345.39 225.33&#10;  C 348.81 223.50 351.53 221.47 353.98 218.85&#10;  A 3.90 3.88 -23.5 0 0 355.02 216.23&#10;  Q 355.10 202.92 355.03 175.75&#10;  Q 355.00 165.09 357.58 154.88&#10;  A 0.44 0.43 84.6 0 0 356.98 154.38&#10;  Q 308.58 176.00 281.87 188.10&#10;  Q 274.64 191.37 271.18 191.52&#10;  C 260.33 192.00 253.97 192.11 245.15 188.25&#10;  Q 198.30 167.78 151.45 146.70&#10;  Q 149.46 145.80 147.42 145.55&#10;  A 0.62 0.61 8.7 0 0 146.75 146.04&#10;  Q 146.39 147.87 146.93 149.16&#10;  Z&#10;  M 298.4345 322.7326&#10;  A 29.05 28.45 -80.1 0 0 265.4136 346.4586&#10;  A 29.05 28.45 -80.1 0 0 288.4455 379.9674&#10;  A 29.05 28.45 -80.1 0 0 321.4664 356.2414&#10;  A 29.05 28.45 -80.1 0 0 298.4345 322.7326&#10;  Z"/>
<path fill="#fe8329" fill-opacity="0.992" d="&#10;  M 440.35 96.84&#10;  A 0.33 0.33 0.0 0 1 440.35 97.45&#10;  C 397.08 116.56 334.60 144.20 281.25 168.78&#10;  C 278.26 170.15 273.80 171.80 271.37 172.60&#10;  C 264.58 174.82 258.51 173.49 251.83 170.91&#10;  Q 239.35 166.08 222.08 158.19&#10;  Q 170.17 134.50 166.89 133.10&#10;  Q 162.70 131.31 161.54 130.96&#10;  A 0.31 0.31 0.0 0 1 161.51 130.37&#10;  Q 163.52 129.51 166.12 128.63&#10;  Q 185.22 122.16 203.78 116.64&#10;  C 220.26 111.74 235.05 106.74 250.28 102.10&#10;  A 5.32 5.28 45.2 0 1 253.46 102.12&#10;  Q 258.80 103.84 264.78 103.55&#10;  C 275.09 103.05 285.34 93.08 277.26 82.96&#10;  C 271.23 75.41 260.56 74.62 252.06 79.39&#10;  C 250.09 80.50 248.35 82.64 246.71 84.02&#10;  A 2.45 2.34 -71.8 0 1 245.79 84.51&#10;  C 230.87 88.63 214.19 93.98 199.37 98.43&#10;  Q 167.06 108.13 137.87 118.83&#10;  Q 135.91 119.55 134.04 118.72&#10;  Q 114.33 109.99 85.85 97.75&#10;  A 0.40 0.40 0.0 0 1 85.85 97.02&#10;  Q 174.10 57.46 254.74 21.00&#10;  Q 259.30 18.94 264.28 19.41&#10;  Q 267.46 19.71 273.58 22.40&#10;  C 324.14 44.64 388.85 73.95 440.35 96.84&#10;  Z"/>
<path fill="#0c3b59" fill-opacity="0.992" d="&#10;  M 148.63 253.04&#10;  L 148.55 281.93&#10;  A 1.06 1.06 0.0 0 0 149.63 283.00&#10;  Q 156.55 282.86 161.10 283.10&#10;  C 167.82 283.46 170.59 292.09 164.84 295.89&#10;  Q 162.96 297.13 158.87 297.06&#10;  Q 154.61 296.99 149.87 297.22&#10;  A 1.49 1.49 0.0 0 0 148.45 298.71&#10;  L 148.45 317.41&#10;  A 1.51 1.50 89.4 0 0 149.98 318.92&#10;  Q 158.24 318.80 161.22 318.97&#10;  C 170.39 319.49 171.17 332.56 160.74 333.13&#10;  Q 156.91 333.35 149.64 333.22&#10;  A 1.22 1.22 0.0 0 0 148.39 334.44&#10;  L 148.39 354.40&#10;  A 1.00 1.00 0.0 0 0 149.43 355.40&#10;  Q 156.07 355.16 161.24 355.52&#10;  C 168.60 356.03 171.22 364.50 165.39 369.07&#10;  Q 163.10 370.88 158.66 370.68&#10;  Q 156.35 370.57 149.09 370.64&#10;  A 0.71 0.70 -0.4 0 0 148.39 371.34&#10;  L 148.39 392.54&#10;  A 0.82 0.82 0.0 0 0 149.19 393.36&#10;  Q 155.00 393.53 160.75 393.57&#10;  C 164.86 393.59 168.56 397.00 168.53 401.28&#10;  C 168.44 410.79 155.51 409.07 149.51 408.87&#10;  A 1.01 1.01 0.0 0 0 148.47 409.88&#10;  L 148.47 451.09&#10;  A 1.52 1.52 0.0 0 0 149.99 452.61&#10;  L 185.85 452.61&#10;  A 1.00 1.00 0.0 0 0 186.85 451.61&#10;  L 186.89 271.69&#10;  Q 194.19 273.40 200.29 276.21&#10;  Q 205.66 278.69 205.66 284.77&#10;  Q 205.70 399.52 205.64 456.96&#10;  Q 205.63 466.69 199.04 469.67&#10;  Q 195.97 471.05 189.31 471.00&#10;  Q 154.48 470.74 144.31 470.93&#10;  Q 138.48 471.03 135.93 469.71&#10;  C 130.63 466.97 129.34 461.98 129.44 456.00&#10;  Q 129.52 450.37 129.49 418.36&#10;  Q 129.48 411.93 128.22 408.19&#10;  Q 102.47 331.83 80.68 259.31&#10;  Q 79.61 255.76 78.55 253.17&#10;  A 2.03 2.01 75.2 0 0 76.45 251.94&#10;  Q 67.68 252.99 59.75 251.56&#10;  A 1.79 1.78 -76.7 0 0 57.72 252.82&#10;  Q 38.54 319.26 17.61 385.61&#10;  Q 14.29 396.16 10.95 404.90&#10;  C 9.95 407.52 6.59 411.39 3.53 408.98&#10;  Q 1.41 407.31 1.38 404.25&#10;  Q 1.18 381.93 1.44 368.22&#10;  A 4.97 4.93 -36.2 0 1 1.66 366.83&#10;  L 39.83 241.95&#10;  A 4.23 4.22 -53.7 0 0 39.28 238.32&#10;  C 34.23 230.96 31.09 224.19 31.06 215.20&#10;  Q 31.03 203.67 37.13 194.59&#10;  Q 44.00 184.36 55.64 180.26&#10;  A 2.14 2.13 -10.1 0 0 57.06 178.24&#10;  L 56.90 149.15&#10;  A 3.71 3.67 -37.1 0 1 57.05 148.11&#10;  C 60.44 136.84 75.19 135.09 79.17 147.60&#10;  Q 80.01 150.25 79.96 154.88&#10;  Q 79.89 161.76 79.91 178.15&#10;  A 2.64 2.63 -78.9 0 0 81.53 180.57&#10;  Q 96.36 186.75 102.22 200.82&#10;  C 107.47 213.39 105.27 227.24 96.96 238.13&#10;  A 4.20 4.19 -35.1 0 0 96.29 241.93&#10;  Q 107.67 278.21 126.10 335.93&#10;  Q 126.71 337.86 127.58 340.13&#10;  Q 128.01 341.24 128.35 341.40&#10;  A 1.03 1.02 12.5 0 0 129.82 340.47&#10;  Q 129.50 308.60 129.55 258.05&#10;  C 129.55 251.48 136.82 245.95 142.87 248.85&#10;  Q 145.25 249.98 148.63 253.04&#10;  Z&#10;  M 69.9218 197.1902&#10;  A 18.29 17.75 -84.0 0 0 50.3572 213.5246&#10;  A 18.29 17.75 -84.0 0 0 66.0982 233.5698&#10;  A 18.29 17.75 -84.0 0 0 85.6628 217.2354&#10;  A 18.29 17.75 -84.0 0 0 69.9218 197.1902&#10;  Z"/>
<path fill="#f26a2e" fill-opacity="0.992" d="&#10;  M 296.95 248.18&#10;  Q 295.83 236.14 296.50 224.15&#10;  C 296.80 218.78 296.90 213.32 295.10 209.65&#10;  A 2.36 2.35 -10.3 0 0 293.19 208.33&#10;  C 289.77 208.02 286.41 209.18 282.86 209.48&#10;  Q 270.10 210.57 258.92 209.87&#10;  Q 254.88 209.62 251.25 208.69&#10;  C 243.52 206.71 238.16 204.00 224.80 198.19&#10;  Q 224.48 198.05 152.31 165.21&#10;  Q 150.75 164.50 148.15 162.79&#10;  Q 148.54 155.60 146.93 149.16&#10;  Q 146.39 147.87 146.75 146.04&#10;  A 0.62 0.61 8.7 0 1 147.42 145.55&#10;  Q 149.46 145.80 151.45 146.70&#10;  Q 198.30 167.78 245.15 188.25&#10;  C 253.97 192.11 260.33 192.00 271.18 191.52&#10;  Q 274.64 191.37 281.87 188.10&#10;  Q 308.58 176.00 356.98 154.38&#10;  A 0.44 0.43 84.6 0 1 357.58 154.88&#10;  Q 355.00 165.09 355.03 175.75&#10;  Q 355.10 202.92 355.02 216.23&#10;  A 3.90 3.88 -23.5 0 1 353.98 218.85&#10;  C 351.53 221.47 348.81 223.50 345.39 225.33&#10;  Q 322.34 237.68 296.95 248.18&#10;  Z"/>
<path fill="#fe8329" fill-opacity="0.992" d="&#10;  M 296.95 248.18&#10;  Q 283.52 253.58 272.00 256.28&#10;  Q 261.39 258.76 250.98 256.04&#10;  Q 249.26 255.59 242.32 253.27&#10;  Q 236.29 251.25 233.70 250.23&#10;  Q 190.27 233.11 153.05 211.94&#10;  C 146.24 208.07 146.47 202.36 146.43 194.19&#10;  Q 146.31 171.81 146.93 149.16&#10;  Q 148.54 155.60 148.15 162.79&#10;  Q 150.75 164.50 152.31 165.21&#10;  Q 224.48 198.05 224.80 198.19&#10;  C 238.16 204.00 243.52 206.71 251.25 208.69&#10;  Q 254.88 209.62 258.92 209.87&#10;  Q 270.10 210.57 282.86 209.48&#10;  C 286.41 209.18 289.77 208.02 293.19 208.33&#10;  A 2.36 2.35 -10.3 0 1 295.10 209.65&#10;  C 296.90 213.32 296.80 218.78 296.50 224.15&#10;  Q 295.83 236.14 296.95 248.18&#10;  Z"/>
<path fill="#0c3b59" fill-opacity="0.992" d="&#10;  M 395.66 177.33&#10;  C 392.31 179.35 387.84 179.80 385.11 176.72&#10;  C 381.39 172.51 384.91 165.98 388.88 163.92&#10;  Q 391.29 162.66 392.76 161.69&#10;  A 2.52 2.49 83.1 0 0 393.76 160.40&#10;  Q 394.14 159.34 394.50 158.11&#10;  C 395.42 154.98 399.04 152.73 402.04 151.79&#10;  C 411.50 148.81 428.64 149.98 429.60 163.45&#10;  C 430.05 169.73 426.91 176.37 420.62 178.59&#10;  Q 408.40 182.92 397.17 177.27&#10;  A 1.56 1.55 -47.2 0 0 395.66 177.33&#10;  Z"/>
<ellipse fill="#37b2b0" fill-opacity="0.992" cx="0.00" cy="0.00" transform="translate(68.01,215.38) rotate(-84.0)" rx="18.29" ry="17.75"/>
<path fill="#4dbe9d" fill-opacity="0.992" d="&#10;  M 186.89 271.69&#10;  L 186.85 451.61&#10;  A 1.00 1.00 0.0 0 1 185.85 452.61&#10;  L 149.99 452.61&#10;  A 1.52 1.52 0.0 0 1 148.47 451.09&#10;  L 148.47 409.88&#10;  A 1.01 1.01 0.0 0 1 149.51 408.87&#10;  C 155.51 409.07 168.44 410.79 168.53 401.28&#10;  C 168.56 397.00 164.86 393.59 160.75 393.57&#10;  Q 155.00 393.53 149.19 393.36&#10;  A 0.82 0.82 0.0 0 1 148.39 392.54&#10;  L 148.39 371.34&#10;  A 0.71 0.70 -0.4 0 1 149.09 370.64&#10;  Q 156.35 370.57 158.66 370.68&#10;  Q 163.10 370.88 165.39 369.07&#10;  C 171.22 364.50 168.60 356.03 161.24 355.52&#10;  Q 156.07 355.16 149.43 355.40&#10;  A 1.00 1.00 0.0 0 1 148.39 354.40&#10;  L 148.39 334.44&#10;  A 1.22 1.22 0.0 0 1 149.64 333.22&#10;  Q 156.91 333.35 160.74 333.13&#10;  C 171.17 332.56 170.39 319.49 161.22 318.97&#10;  Q 158.24 318.80 149.98 318.92&#10;  A 1.51 1.50 89.4 0 1 148.45 317.41&#10;  L 148.45 298.71&#10;  A 1.49 1.49 0.0 0 1 149.87 297.22&#10;  Q 154.61 296.99 158.87 297.06&#10;  Q 162.96 297.13 164.84 295.89&#10;  C 170.59 292.09 167.82 283.46 161.10 283.10&#10;  Q 156.55 282.86 149.63 283.00&#10;  A 1.06 1.06 0.0 0 1 148.55 281.93&#10;  L 148.63 253.04&#10;  Q 167.23 263.06 186.89 271.69&#10;  Z"/>
<ellipse fill="#37b2b0" fill-opacity="0.992" cx="0.00" cy="0.00" transform="translate(293.44,351.35) rotate(-80.1)" rx="29.05" ry="28.45"/>
</svg>