<?xml version="1.0" standalone="no"?>
<!DOCTYPE svg PUBLIC "-//W3C//DTD SVG 20010904//EN"
 "http://www.w3.org/TR/2001/REC-SVG-20010904/DTD/svg10.dtd">
<svg version="1.0" xmlns="http://www.w3.org/2000/svg"
 width="312.000000pt" height="312.000000pt" viewBox="0 0 312.000000 312.000000"
 preserveAspectRatio="xMidYMid meet">
<metadata>
Created by potrace 1.16, written by Peter Selinger 2001-2019
</metadata>
<g transform="translate(0.000000,312.000000) scale(0.100000,-0.100000)"
fill="#000000" stroke="none">
<path d="M1526 2437 c-83 -46 -108 -158 -52 -232 32 -41 95 -75 141 -75 37 0
104 30 128 58 51 57 52 160 1 213 -16 17 -41 37 -56 45 -41 21 -116 17 -162
-9z m29 -117 c19 -38 37 -39 33 -2 -2 22 1 28 20 30 13 2 29 -2 37 -8 10 -8
19 -8 34 -1 24 13 51 4 51 -16 0 -10 -7 -14 -20 -10 -13 3 -20 0 -20 -9 0 -8
9 -14 20 -14 11 0 20 -6 20 -14 0 -10 -26 -13 -120 -14 -66 0 -122 3 -125 8
-3 5 2 21 11 35 9 14 13 25 10 25 -4 0 -4 5 -1 10 12 19 35 10 50 -20z"/>
<path d="M1078 2286 c-166 -60 -257 -206 -227 -370 20 -110 79 -189 181 -243
48 -25 63 -28 153 -28 89 0 106 3 156 28 66 32 132 99 162 165 17 37 22 66 22
137 0 81 -3 95 -30 143 -38 70 -112 136 -181 161 -64 24 -178 28 -236 7z m219
-72 c74 -46 107 -100 111 -185 4 -60 1 -77 -23 -125 -26 -54 -90 -114 -122
-114 -18 0 -16 -7 7 -30 42 -42 29 -50 -84 -50 -58 0 -107 4 -110 9 -3 4 3 16
14 26 26 23 25 32 -2 41 -13 3 -36 16 -51 27 -42 29 -19 43 26 17 115 -68 273
-8 316 119 22 68 7 142 -42 198 -35 40 -97 72 -139 73 -36 0 -59 10 -52 22 12
19 102 2 151 -28z m-36 -29 c67 -35 118 -132 103 -198 -22 -105 -94 -167 -194
-167 -111 0 -200 89 -200 200 0 26 30 95 52 120 57 65 161 85 239 45z"/>
<path d="M1795 2157 c-107 -36 -188 -106 -231 -200 -23 -52 -28 -75 -27 -144
0 -72 4 -91 32 -147 37 -76 101 -138 179 -174 49 -23 70 -27 152 -27 82 0 103
4 152 27 152 71 232 220 206 383 -18 114 -94 212 -206 263 -68 31 -192 40
-257 19z m201 -138 c15 -14 37 -22 68 -23 28 -1 53 -9 65 -20 29 -26 28 -84
-3 -128 l-23 -35 19 -38 c44 -85 16 -145 -68 -145 -30 0 -55 -8 -80 -25 -20
-14 -44 -25 -53 -25 -22 0 -74 28 -84 46 -5 9 -25 14 -57 14 -88 0 -116 62
-66 144 24 40 24 40 5 75 -44 83 -14 146 70 146 30 1 58 9 81 23 42 27 91 24
126 -9z"/>
<path d="M1858 1885 c-40 -30 -48 -40 -48 -68 0 -28 8 -39 50 -71 55 -42 65
-42 129 4 34 25 41 36 41 65 0 29 -7 39 -46 70 -26 19 -54 35 -63 35 -9 0 -37
-16 -63 -35z"/>
<path d="M893 1639 c-145 -71 -91 -279 72 -279 163 0 217 209 71 279 -54 26
-90 26 -143 0z"/>
<path d="M1307 1616 c-98 -36 -159 -105 -179 -198 -37 -175 101 -328 285 -316
183 12 299 181 241 351 -19 55 -76 118 -136 148 -54 28 -158 35 -211 15z m124
-188 c83 -34 153 -67 156 -74 8 -22 -34 -104 -54 -104 -17 0 -254 94 -302 120
-12 6 -21 17 -21 26 0 26 40 94 55 94 9 0 83 -28 166 -62z"/>
<path d="M1247 1435 c-20 -42 -30 -34 157 -111 136 -56 139 -56 152 -6 7 24
-5 46 -13 25 -7 -20 -23 -15 -23 7 0 11 -4 20 -10 20 -5 0 -10 -4 -10 -10 0
-5 -4 -10 -10 -10 -5 0 -10 7 -10 15 0 18 -12 19 -28 3 -9 -9 -12 -7 -12 10 0
12 -4 22 -10 22 -5 0 -10 -4 -10 -10 0 -5 -4 -10 -10 -10 -5 0 -10 10 -10 22
0 17 -3 19 -12 10 -16 -16 -28 -15 -28 3 0 8 -4 15 -10 15 -5 0 -10 -4 -10
-10 0 -5 -4 -10 -10 -10 -5 0 -10 9 -10 20 0 11 -4 20 -10 20 -5 0 -10 -4 -10
-10 0 -5 -4 -10 -10 -10 -5 0 -10 9 -10 20 0 30 -14 24 -33 -15z"/>
<path d="M1805 1408 c-73 -25 -134 -102 -135 -168 -1 -124 122 -222 239 -191
193 51 201 296 12 360 -41 13 -76 13 -116 -1z m107 -73 c-3 -48 3 -77 27 -144
40 -106 36 -111 -71 -111 -61 0 -80 3 -85 15 -3 9 9 53 26 98 30 81 40 150 22
161 -5 3 -7 15 -4 27 5 17 12 20 47 17 l41 -3 -3 -60z"/>
<path d="M995 1308 c-32 -17 -45 -39 -45 -75 0 -78 93 -111 151 -54 31 31 36
59 17 94 -24 45 -77 61 -123 35z"/>
<path d="M1109 1125 c-38 -20 -54 -65 -39 -109 14 -44 48 -66 100 -66 33 0 48
6 71 29 84 84 -25 204 -132 146z"/>
<path d="M1394 1070 c-68 -27 -138 -90 -172 -154 -23 -44 -27 -63 -27 -136 0
-69 4 -93 23 -128 35 -66 88 -119 150 -149 82 -40 202 -40 284 0 65 32 121 90
151 156 31 67 30 189 -1 249 -60 113 -154 173 -281 179 -59 2 -88 -1 -127 -17z
m341 -244 c20 -79 26 -119 19 -126 -5 -5 -56 -16 -111 -24 -63 -9 -140 -29
-203 -52 -59 -22 -104 -34 -109 -28 -8 8 -71 235 -71 254 0 9 71 25 160 35 30
4 96 22 145 40 122 45 119 44 131 29 6 -7 24 -65 39 -128z"/>
<path d="M1555 898 c-27 -12 -51 -22 -53 -23 -1 -1 8 -42 22 -91 19 -73 27
-89 42 -88 11 1 45 5 77 9 54 6 57 8 51 28 -4 12 -17 58 -29 102 -25 93 -32
97 -110 63z"/>
<path d="M1391 859 c-30 -5 -56 -11 -58 -13 -3 -3 46 -204 52 -214 1 -1 17 4
36 12 19 8 50 21 70 29 l37 15 -24 82 c-13 45 -26 86 -29 91 -7 10 -9 10 -84
-2z"/>
<path d="M1574 460 c-40 -16 -66 -61 -61 -103 6 -46 22 -66 64 -83 65 -28 142
19 145 87 2 46 -14 73 -56 93 -37 18 -60 19 -92 6z"/>
<path d="M1319 445 c-88 -48 -41 -185 63 -185 32 0 47 7 74 34 48 48 44 105
-10 148 -26 21 -91 23 -127 3z"/>
</g>
</svg>
